<svg height="512" viewBox="0 0 64 64" width="512" xmlns="http://www.w3.org/2000/svg"><g><path d="m39 49h2v2h-2z"/><path d="m18 33h8v6h-8z"/><path d="m47 49h2v2h-2z"/><path d="m14 42v1h16v-1c0-.552-.448-1-1-1h-14c-.552 0-1 .448-1 1z"/><path d="m41 6c0-1.654-1.346-3-3-3h-32c-1.654 0-3 1.346-3 3v19h38zm-19 7c2.206 0 4 1.794 4 4 0 1.858-1.279 3.411-3 3.858v2.142h-2v-2.142c-1.721-.447-3-2-3-3.858h2c0 1.103.897 2 2 2s2-.897 2-2-.897-2-2-2c-2.206 0-4-1.794-4-4 0-1.858 1.279-3.411 3-3.858v-2.142h2v2.142c1.721.447 3 2 3 3.858h-2c0-1.103-.897-2-2-2s-2 .897-2 2 .897 2 2 2z"/><path d="m6 31h32c1.654 0 3-1.346 3-3v-1h-38v1c0 1.654 1.346 3 3 3z"/><path d="m59 35h-14v8h14zm-2 4h-2v-2h2z"/><path d="m57 25.414-1.293 1.293c-.391.391-1.023.391-1.414 0l-2.293-2.293-2.293 2.293c-.391.391-1.023.391-1.414 0l-1.293-1.293v7.586h10zm-2 5.586h-6v-2h6z"/><path d="m55 49h2v2h-2z"/><path d="m3 45v16h58v-16zm42 3c0-.553.447-1 1-1h4c.553 0 1 .447 1 1v4c0 .553-.447 1-1 1h-4c-.553 0-1-.447-1-1zm-8 0c0-.553.447-1 1-1h4c.553 0 1 .447 1 1v4c0 .553-.447 1-1 1h-4c-.553 0-1-.447-1-1zm-2 10c0 .553-.447 1-1 1h-28c-.553 0-1-.447-1-1v-10c0-.553.447-1 1-1h28c.553 0 1 .447 1 1zm24 1h-22v-2h22zm0-7c0 .553-.447 1-1 1h-4c-.553 0-1-.447-1-1v-4c0-.553.447-1 1-1h4c.553 0 1 .447 1 1z"/><path d="m25.382 51 1-2h-12.764l1 2z"/><path d="m26.895 52.447c-.17.339-.516.553-.895.553h-12c-.379 0-.725-.214-.895-.553l-1.723-3.447h-4.382v8h26v-8h-4.382z"/><path d="m49 12h2v8h-2z"/><path d="m53 10h2v7h-2z"/></g></svg>
