<?xml version="1.0" encoding="UTF-8" standalone="no"?>
<!DOCTYPE svg PUBLIC "-//W3C//DTD SVG 1.1//EN" "http://www.w3.org/Graphics/SVG/1.1/DTD/svg11.dtd">
<svg width="100%" height="100%" viewBox="0 0 225 80" version="1.1" xmlns="http://www.w3.org/2000/svg" xmlns:xlink="http://www.w3.org/1999/xlink" xml:space="preserve" xmlns:serif="http://www.serif.com/" style="fill-rule:evenodd;clip-rule:evenodd;stroke-linejoin:round;stroke-miterlimit:2;">
    <g transform="matrix(1,0,0,1,4.75,76.425)">
        <path d="M62.5,-69C59.7,-69 58,-67.6 57.3,-64.8L47.5,-27.5C46.6,-24.2 46,-21.2 45.4,-18L43.9,-18C43.2,-21.2 42.7,-24.2 41.8,-27.4L32,-64.8C31.3,-67.6 29.7,-69 26.9,-69L13.9,-69C10.7,-69 9.1,-67.3 9,-64.1L6.4,0L18.6,0L20.8,-58.9L22.5,-58.9L34.6,-13C35.3,-10.3 37,-8.8 39.9,-8.8L49.5,-8.8C52.3,-8.8 54,-10.3 54.7,-13L66.6,-58.9L68.5,-58.9L70.8,0L83.1,0L80.3,-64.1C80.2,-67.3 78.6,-69 75.4,-69L62.5,-69Z" style="fill:white;fill-rule:nonzero;stroke:rgb(213,236,255);stroke-width:2.08px;"/>
        <path d="M122.1,-69.9C110.3,-69.9 105,-69.8 97.1,-69L97.1,0L109.6,0L109.6,-26.3C113.8,-25.8 118.7,-25.5 123.7,-25.5C140,-25.5 145.8,-30.2 145.8,-47.7C145.8,-65.1 140,-69.9 122.1,-69.9ZM109.6,-35.7L109.6,-59.5L121.8,-59.6C130.5,-59.6 133.2,-57.2 133.2,-47.7C133.2,-38.2 130.5,-35.8 121.8,-35.7L109.6,-35.7Z" style="fill:white;fill-rule:nonzero;stroke:rgb(213,236,255);stroke-width:2.08px;"/>
        <path d="M178,-70.2C161.5,-70.2 154.3,-67.5 154.3,-51.7C154.3,-41.4 158,-35 168.2,-31.7L182.1,-27.3C187.1,-25.7 189.4,-24.5 189.4,-18.2C189.4,-11.1 186.9,-9.8 177.9,-9.8C173.1,-9.8 169.1,-9.9 156,-10.2L155.2,-1C165.2,1 173.4,1.2 177.6,1.2C195.3,1.2 202.1,-2.4 202.1,-18.1C202.1,-28.2 198.8,-34.7 187.9,-38.2L174.6,-42.3C169.2,-44 166.9,-45.4 166.9,-51.5C166.9,-58.9 170,-59.4 178.4,-59.4C185.2,-59.4 193.2,-59.2 198.9,-59L199.7,-67.9C192.3,-69.8 184.6,-70.2 178,-70.2Z" style="fill:white;fill-rule:nonzero;stroke:rgb(213,236,255);stroke-width:2.08px;"/>
    </g>
</svg>
